<?xml version="1.0" standalone="no"?>
<!DOCTYPE svg PUBLIC "-//W3C//DTD SVG 20010904//EN"
 "http://www.w3.org/TR/2001/REC-SVG-20010904/DTD/svg10.dtd">
<svg version="1.0" xmlns="http://www.w3.org/2000/svg"
 width="624.000000pt" height="155.000000pt" viewBox="0 0 624.000000 155.000000"
 preserveAspectRatio="xMidYMid meet">

<g transform="translate(0.000000,155.000000) scale(0.100000,-0.100000)"
fill="#000000" stroke="none">
<path d="M653 1489 c-286 -33 -526 -242 -604 -525 -30 -111 -24 -297 13 -402
40 -110 84 -178 178 -272 99 -99 201 -157 339 -191 150 -38 343 -17 486 51
293 140 456 468 390 785 -31 150 -145 325 -273 418 -148 109 -340 158 -529
136z m272 -56 c304 -77 518 -366 502 -678 -2 -49 -12 -116 -21 -148 l-17 -57
-316 0 c-280 0 -319 2 -335 17 -22 20 -23 41 -1 65 14 16 34 18 178 18 170 0
185 4 185 47 0 34 -29 43 -147 43 -72 0 -113 4 -121 12 -17 17 -15 48 5 70 14
15 32 18 127 18 61 0 117 4 124 9 8 5 12 21 10 37 l-3 29 -173 5 c-157 5 -175
7 -188 24 -19 27 -18 42 7 67 20 20 29 20 194 17 192 -3 204 -7 253 -78 26
-39 28 -75 6 -129 -14 -36 -14 -42 1 -71 10 -19 15 -47 13 -66 l-4 -34 52 0
c50 0 53 1 59 30 11 48 8 180 -5 235 -44 195 -216 367 -416 419 -78 20 -212
21 -289 1 -127 -32 -277 -136 -336 -231 -20 -33 -23 -34 -80 -34 l-60 0 28 53
c37 69 162 193 243 240 153 89 348 115 525 70z m-265 -423 c25 -25 25 -45 0
-70 -19 -19 -33 -20 -244 -20 -152 0 -227 -4 -232 -11 -3 -6 -9 -48 -11 -92
-12 -197 85 -387 253 -497 106 -69 195 -95 324 -95 113 1 166 13 266 62 62 30
166 120 205 178 23 33 27 35 83 35 65 0 65 0 22 -68 -76 -121 -216 -228 -361
-278 -104 -35 -266 -44 -368 -20 -252 59 -450 251 -513 496 -21 83 -15 281 11
353 l17 47 264 0 c251 0 265 -1 284 -20z m5 -190 c15 -16 17 -26 9 -48 -9 -27
-10 -27 -130 -32 -121 -5 -154 -15 -154 -46 0 -35 29 -44 142 -44 90 0 115 -3
130 -17 22 -20 23 -41 1 -65 -14 -16 -33 -18 -165 -18 l-150 0 -29 29 c-27 28
-29 34 -29 111 0 138 16 149 216 150 129 0 142 -2 159 -20z"/>
<path d="M2947 1272 c-24 -27 -21 -59 8 -78 51 -33 104 21 71 71 -20 30 -56
33 -79 7z"/>
<path d="M2790 1050 l0 -230 40 0 40 0 0 230 0 230 -40 0 -40 0 0 -230z"/>
<path d="M3390 1050 l0 -230 40 0 40 0 0 90 c0 57 5 104 15 125 24 59 87 67
115 15 5 -10 10 -66 10 -124 l0 -106 40 0 40 0 0 135 c0 133 0 135 -27 165
-38 43 -98 51 -148 21 -20 -11 -38 -21 -41 -21 -2 0 -4 36 -4 80 l0 80 -40 0
-40 0 0 -230z"/>
<path d="M5460 1215 c0 -63 -1 -65 -25 -65 -22 0 -25 -4 -25 -35 0 -31 3 -35
25 -35 l25 0 0 -130 0 -130 40 0 40 0 0 130 0 130 25 0 c22 0 25 4 25 35 0 31
-3 35 -25 35 -24 0 -25 2 -25 65 l0 65 -40 0 -40 0 0 -65z"/>
<path d="M1660 1045 l0 -225 125 0 125 0 0 40 0 40 -85 0 -85 0 0 60 0 60 85
0 85 0 0 40 0 40 -85 0 -85 0 0 45 0 45 85 0 85 0 0 40 0 40 -125 0 -125 0 0
-225z"/>
<path d="M3970 1045 l0 -225 95 0 c103 0 141 12 167 52 39 60 29 130 -25 173
-21 16 -28 28 -21 33 18 12 34 49 34 77 0 75 -63 115 -180 115 l-70 0 0 -225z
m154 129 c33 -32 5 -84 -46 -84 -27 0 -28 2 -28 50 0 49 1 50 29 50 16 0 37
-7 45 -16z m29 -181 c23 -22 22 -70 -2 -83 -11 -5 -38 -10 -60 -10 l-41 0 0
53 c0 30 3 57 7 61 11 11 75 -3 96 -21z"/>
<path d="M2102 1141 c-39 -25 -42 -25 -42 -6 0 11 -11 15 -40 15 l-40 0 0
-165 0 -165 40 0 40 0 0 78 c1 136 22 185 80 185 50 0 59 -23 60 -150 l0 -113
40 0 40 0 0 135 c0 133 0 135 -28 166 -37 41 -102 50 -150 20z"/>
<path d="M2434 1135 c-103 -62 -103 -233 0 -296 38 -23 115 -25 156 -4 29 15
30 15 30 -7 0 -13 -4 -28 -8 -34 -22 -34 -112 -46 -148 -19 -20 15 -104 21
-104 6 0 -17 42 -62 73 -78 46 -23 156 -22 198 3 65 38 74 68 77 267 l4 177
-41 0 c-27 0 -44 -5 -47 -15 -5 -12 -12 -11 -42 5 -49 27 -98 25 -148 -5z
m170 -86 c36 -43 35 -91 -3 -130 -62 -62 -161 -19 -161 71 0 58 33 90 94 90
37 0 48 -5 70 -31z"/>
<path d="M3154 1150 c-28 -11 -64 -58 -64 -82 0 -37 29 -74 78 -101 58 -31 76
-51 68 -72 -7 -19 -39 -19 -78 1 -29 15 -32 15 -55 -8 l-24 -24 26 -24 c19
-18 40 -25 85 -28 57 -4 61 -3 95 31 61 61 42 124 -54 176 -34 18 -61 38 -61
46 0 21 30 26 63 10 29 -14 32 -14 54 7 18 17 20 24 11 35 -30 37 -97 52 -144
33z"/>
<path d="M4425 1146 c-37 -16 -92 -77 -101 -112 -20 -81 20 -175 89 -208 137
-64 286 51 255 197 -21 102 -146 165 -243 123z m139 -97 c68 -80 -10 -198
-105 -159 -62 26 -78 112 -30 161 42 42 99 41 135 -2z"/>
<path d="M4830 1138 c-103 -53 -131 -181 -57 -265 76 -86 202 -85 275 3 72 88
42 218 -62 265 -55 25 -102 24 -156 -3z m137 -73 c33 -23 47 -76 30 -117 -19
-46 -43 -63 -88 -63 -71 0 -114 71 -85 140 8 18 22 38 33 44 26 15 85 13 110
-4z"/>
<path d="M5198 1144 c-33 -18 -48 -43 -48 -82 0 -39 28 -72 83 -100 59 -29 74
-47 57 -67 -17 -21 -53 -19 -83 5 l-25 20 -22 -30 c-24 -34 -21 -44 22 -66 22
-11 48 -15 85 -12 72 6 106 38 106 98 0 49 -23 76 -93 113 -25 13 -46 31 -48
39 -5 24 26 30 60 12 28 -15 31 -14 54 7 28 26 19 44 -33 66 -41 17 -81 16
-115 -3z"/>
<path d="M5720 1138 c-53 -27 -78 -60 -91 -117 -18 -82 32 -177 108 -202 51
-16 145 -6 183 21 38 27 38 43 -1 57 -26 10 -36 10 -53 -2 -24 -17 -89 -20
-117 -5 -10 6 -26 24 -34 40 l-16 30 141 0 140 0 0 33 c0 54 -40 118 -90 144
-55 29 -113 29 -170 1z m149 -74 c17 -14 29 -30 25 -35 -7 -11 -184 -12 -184
-1 0 5 6 15 13 24 35 45 101 50 146 12z"/>
<path d="M6137 1140 c-30 -24 -37 -25 -37 -5 0 10 -11 15 -35 15 l-35 0 0
-165 0 -165 45 0 45 0 0 113 c0 121 14 164 50 154 18 -5 40 28 40 58 0 22 -43
18 -73 -5z"/>
<path d="M2940 985 l0 -165 40 0 40 0 0 165 0 165 -40 0 -40 0 0 -165z"/>
<path d="M2170 440 c0 -62 4 -110 9 -110 6 0 11 16 13 36 l3 35 42 -35 c57
-50 66 -45 14 8 l-42 43 43 36 c24 20 38 37 31 37 -7 0 -28 -13 -46 -30 -19
-16 -37 -30 -41 -30 -3 0 -6 27 -6 60 0 33 -4 60 -10 60 -6 0 -10 -43 -10
-110z"/>
<path d="M4122 539 c2 -6 8 -10 13 -10 5 0 11 4 13 10 2 6 -4 11 -13 11 -9 0
-15 -5 -13 -11z"/>
<path d="M4520 504 c0 -45 0 -45 -22 -30 -33 23 -75 20 -103 -9 -66 -65 14
-168 97 -124 16 9 23 8 29 -2 5 -8 9 32 9 99 0 61 -2 112 -5 112 -3 0 -5 -21
-5 -46z m-17 -56 c24 -28 21 -55 -9 -84 -41 -42 -104 -15 -104 45 1 65 69 89
113 39z"/>
<path d="M4595 470 c0 -44 3 -80 8 -80 4 0 7 36 7 80 0 44 -3 80 -7 80 -5 0
-8 -36 -8 -80z"/>
<path d="M1841 452 l-43 -87 -43 85 c-47 93 -48 93 -64 -17 -13 -88 -14 -106
-2 -99 5 3 12 37 16 76 4 38 10 70 14 70 4 0 22 -31 41 -70 19 -38 37 -70 40
-70 3 0 21 32 40 70 38 79 44 77 55 -17 4 -35 11 -63 16 -63 5 0 9 3 9 8 -1
18 -29 195 -32 198 -2 2 -23 -36 -47 -84z"/>
<path d="M2610 471 c0 -71 12 -120 33 -133 15 -10 69 -10 84 0 6 4 17 20 22
35 14 36 14 167 1 167 -6 0 -10 -33 -10 -80 0 -67 -3 -83 -20 -100 -11 -11
-27 -20 -35 -20 -8 0 -24 9 -35 20 -17 17 -20 33 -20 100 0 47 -4 80 -10 80
-6 0 -10 -30 -10 -69z"/>
<path d="M3100 535 c0 -3 14 -27 30 -53 23 -38 30 -61 30 -101 0 -28 5 -51 10
-51 6 0 10 24 10 53 0 42 6 63 30 100 33 52 35 57 21 57 -6 0 -20 -18 -32 -40
-13 -22 -25 -40 -28 -40 -4 0 -17 18 -31 40 -21 35 -40 51 -40 35z"/>
<path d="M3870 535 c0 -5 -7 -50 -15 -100 -17 -107 -17 -105 -6 -105 5 0 12
26 15 58 13 103 15 104 59 17 l40 -79 40 79 41 80 11 -72 c9 -63 25 -110 25
-73 0 34 -24 190 -30 190 -3 0 -24 -37 -46 -82 l-41 -83 -46 90 c-25 50 -46
86 -47 80z"/>
<path d="M1986 469 c-20 -16 -26 -29 -26 -58 0 -65 64 -101 122 -70 16 9 23 8
29 -2 5 -9 9 20 9 71 0 51 -4 80 -9 71 -6 -10 -13 -11 -29 -2 -31 17 -66 13
-96 -10z m107 -21 c24 -28 21 -55 -8 -83 -27 -28 -33 -29 -70 -15 -32 12 -48
52 -34 84 22 47 77 54 112 14z"/>
<path d="M2345 465 c-50 -49 -17 -135 51 -135 43 0 74 15 74 36 0 13 -5 12
-26 -5 -33 -26 -58 -27 -84 -1 -38 38 -27 50 50 50 61 0 70 2 70 18 0 10 -10
28 -23 40 -32 30 -81 29 -112 -3z m103 -7 c6 -6 12 -17 12 -24 0 -10 -16 -14
-60 -14 -59 0 -67 4 -52 26 21 32 68 37 100 12z"/>
<path d="M2810 380 c0 -67 4 -110 10 -110 6 0 10 18 10 40 0 37 2 40 19 30 89
-47 172 62 99 130 -27 25 -80 26 -99 3 -13 -15 -12 -16 6 -8 34 14 68 8 87
-15 25 -31 22 -56 -8 -86 -45 -46 -107 -12 -103 56 3 53 0 70 -11 70 -6 0 -10
-43 -10 -110z"/>
<path d="M3302 467 c-50 -53 -13 -137 60 -137 70 0 103 86 53 135 -32 33 -83
34 -113 2z m81 2 c79 -36 32 -149 -48 -119 -65 25 -51 107 22 129 1 1 13 -4
26 -10z"/>
<path d="M3480 430 c0 -47 4 -64 20 -80 28 -28 84 -27 104 2 18 25 22 138 6
138 -6 0 -10 -27 -10 -60 0 -52 -3 -61 -25 -76 -23 -15 -27 -15 -50 0 -22 15
-25 24 -25 76 0 33 -4 60 -10 60 -6 0 -10 -27 -10 -60z"/>
<path d="M3660 410 c0 -47 4 -80 10 -80 6 0 10 24 10 53 0 55 10 76 45 95 20
11 20 11 0 12 -12 0 -26 -5 -33 -12 -9 -9 -12 -9 -12 0 0 7 -4 12 -10 12 -6 0
-10 -33 -10 -80z"/>
<path d="M4120 410 c0 -47 4 -80 10 -80 6 0 10 33 10 80 0 47 -4 80 -10 80 -6
0 -10 -33 -10 -80z"/>
<path d="M4190 410 c0 -91 16 -110 19 -22 1 44 6 61 22 75 47 39 79 9 79 -74
0 -33 4 -59 10 -59 14 0 12 100 -3 130 -14 28 -54 38 -87 20 -13 -7 -20 -7
-20 0 0 5 -4 10 -10 10 -6 0 -10 -33 -10 -80z"/>
<path d="M4590 345 c0 -8 7 -15 15 -15 8 0 15 7 15 15 0 8 -7 15 -15 15 -8 0
-15 -7 -15 -15z"/>
</g>
</svg>
